# xmcd
#
# Track frame offsets: 
#        150
#        14625
#        27535
#        43097
#        61940
#        78376
#        93578
#        111382
#        127521
#        141065
#        157646
#        172524
#        186783
#        200851
#        214871
#        229399
#        245863
#
# Disc length: 3463 seconds
#
# Revision: 0
# Processed by: cddbd v1.5.2PL0 Copyright (c) Steve Scherf et al.
# Submitted via: ExactAudioCopy v1.1
#
DISCID=ea0d8511
DTITLE=Various Artist - NRJ Holiday 2018 - CD 1
DYEAR=2018
DGENRE=Top 40
TTITLE0=Kungs and Stargate Feat. GOLDN - Be Right Here
TTITLE1=Aya Nakamura - Djadja
TTITLE2=Ariana Grande - No Tears Left To Cry
TTITLE3=Dadju Feat. Franglish - Django
TTITLE4=Kygo Feat. Miguel - Remind Me To Forget
TTITLE5=Christine And The Queens Feat. Dâm - Funk - Damn, Dis-Moi
TTITLE6=Maroon 5 Feat. Cardi B - Girls Like You
TTITLE7=Dosseh - Habitué
TTITLE8=Bob Sinclar - I Believe
TTITLE9=Hoshi - Ta Marinière
TTITLE10=Liam Payne and J Balvin - Familiar
TTITLE11=Kayna Samet - Bye Bye
TTITLE12=Keen'V - Tu Réalises
TTITLE13=Tom Walker - Leave A Light On
TTITLE14=Slimane Feat. Boostee - Luna
TTITLE15=Jax Jones Feat. Mabel And Rich The Kid - Ring Ring
TTITLE16=Jahyanai - Dweet So
EXTD=
EXTT0=
EXTT1=
EXTT2=
EXTT3=
EXTT4=
EXTT5=
EXTT6=
EXTT7=
EXTT8=
EXTT9=
EXTT10=
EXTT11=
EXTT12=
EXTT13=
EXTT14=
EXTT15=
EXTT16=
PLAYORDER=
